<?xml version="1.0" encoding="UTF-8" standalone="no"?>
<!DOCTYPE svg  PUBLIC '-//W3C//DTD SVG 1.1//EN'  'http://www.w3.org/Graphics/SVG/1.1/DTD/svg11.dtd'>
<svg xmlns="http://www.w3.org/2000/svg">
<defs>
<font id="Graphik-MediumItalic" horiz-adv-x="814">
<font-face slope="-8" underline-position="-50" font-weight="500" descent="-200" panose-1="2 11 6 3 3 2 2 13 2 3" units-per-em="1000" unicode-range="U+0020-2265" bbox="-261 -219 1120 971" x-height="523" underline-thickness="50" font-family="Graphik" ascent="800" font-style="italic" cap-height="715"/>
<missing-glyph horiz-adv-x="1000"/>
<glyph glyph-name=".notdef" horiz-adv-x="1000"/>
<glyph glyph-name=".null" horiz-adv-x="0"/>
<glyph glyph-name="nonmarkingreturn" horiz-adv-x="333"/>
<glyph glyph-name="space" horiz-adv-x="238" unicode=" "/>
<glyph glyph-name="exclam" horiz-adv-x="305" unicode="!" d="M124 -7q-34 0 -56.5 22.5t-22.5 54.5q0 33 22.5 55.5t56.5 22.5q33 0 56.5 -22.5t23.5 -54.5q0 -33 -23.5 -55.5t-56.5 -22.5zM96 215l61 500h135l-99 -500h-97z"/>
<glyph glyph-name="quotedbl" horiz-adv-x="409" unicode='&quot;' d="M284 458l22 257h121l-57 -257h-86zM102 458l21 257h121l-56 -257h-86z"/>
<glyph glyph-name="numbersign" horiz-adv-x="529" unicode="#" d="M258 474l-26 -110h83l26 110h-83zM253 99l39 167h-83l-39 -167h-89l39 167h-83l16 98h90l26 110h-84l14 95h93l35 146h88l-34 -146h83l35 146h89l-35 -146h84l-14 -95h-93l-26 -110h87l-16 -98h-94l-39 -167h-89z"/>
<glyph glyph-name="dollar" horiz-adv-x="627" unicode="$" d="M215 525q0 -33 19.5 -54t73.5 -39l31 197q-58 -2 -91 -31t-33 -73zM453 202q0 36 -21.5 58t-78.5 40l-34 -214q65 2 99.5 32.5t34.5 83.5zM307 -10h-3l-20 -125h-66l20 130q-99 16 -155.5 76t-57.5 150h123q2 -48 28 -82.5t78 -46.5l36 226q-101 28 -148 72t-47 122 q0 91 73 150.5t186 61.5l14 89h66l-15 -94q86 -13 137 -63t55 -137h-119q-7 84 -88 104l-33 -210q106 -30 155.5 -73.5t49.5 -121.5q0 -104 -73.5 -166t-195.5 -62z"/>
<glyph glyph-name="percent" horiz-adv-x="801" unicode="%" d="M585 -10q-72 0 -118.5 44t-46.5 114q0 77 53.5 133t132.5 56q71 0 116.5 -45t45.5 -115q0 -76 -52.5 -131.5t-130.5 -55.5zM518 147q0 -77 70 -77q38 1 60 32t22 77q0 33 -16.5 56t-51.5 23q-41 0 -62.5 -31.5t-21.5 -79.5zM96 0l558 715h87l-558 -715h-87zM232 375 q-72 0 -118.5 44t-46.5 114q0 78 53.5 133.5t132.5 55.5q71 0 116.5 -45t45.5 -115q0 -76 -52.5 -131.5t-130.5 -55.5zM165 532q0 -77 70 -77q38 1 60 32t22 77q0 33 -16.5 56t-51.5 23q-41 0 -62.5 -31.5t-21.5 -79.5z"/>
<glyph glyph-name="ampersand" horiz-adv-x="712" unicode="&amp;" d="M386 632q-36 0 -58.5 -24.5t-22.5 -66.5q0 -38 38 -97q26 11 41 19t33.5 22.5t27.5 33.5t9 44q0 29 -17.5 49t-50.5 20zM159 193q0 -48 29 -75.5t80 -27.5q71 0 127 59l-124 187q-112 -46 -112 -143zM638 0h-144l-49 73q-83 -80 -197 -81q-91 0 -154.5 46t-63.5 143 q0 152 196 228q-39 64 -39 125q0 85 58 136t144 51q73 0 124 -40t51 -111t-46 -114t-127 -77l100 -153l93 144h112l-150 -229z"/>
<glyph glyph-name="quotesingle" horiz-adv-x="229" unicode="&apos;" d="M102 458l21 257h124l-56 -257h-89z"/>
<glyph glyph-name="parenleft" horiz-adv-x="335" unicode="(" d="M149 -148q-105 156 -105 353q0 326 248 569h113q-118 -131 -180 -269t-62 -305q0 -191 89 -348h-103z"/>
<glyph glyph-name="parenright" horiz-adv-x="335" unicode=")" d="M200 776q105 -156 105 -353q0 -328 -248 -569h-113q118 131 180 269t62 305q0 191 -89 348h103z"/>
<glyph glyph-name="asterisk" horiz-adv-x="429" unicode="*" d="M170 400l-68 59l100 96l-117 30l42 87l106 -56l7 127h100l-34 -131l122 42l13 -90l-125 -15l70 -107l-85 -50l-49 121z"/>
<glyph glyph-name="plus" horiz-adv-x="539" unicode="+" d="M192 96l31 198h-183l15 94h183l31 198h101l-31 -198h182l-15 -94h-182l-31 -198h-101z"/>
<glyph glyph-name="comma" horiz-adv-x="292" unicode="," d="M55 -123l-69 34l113 236l108 -46z"/>
<glyph glyph-name="hyphen" horiz-adv-x="353" unicode="-" d="M50 229l16 100h240l-16 -100h-240z"/>
<glyph glyph-name="period" horiz-adv-x="289" unicode="." d="M113 -7q-34 0 -56.5 22.5t-22.5 55.5t22.5 56t55.5 23q34 0 57.5 -23t23.5 -56t-23 -55.5t-57 -22.5z"/>
<glyph glyph-name="slash" horiz-adv-x="415" unicode="/" d="M-69 -148l440 924h105l-441 -924h-104z"/>
<glyph glyph-name="zero" horiz-adv-x="701" unicode="0" d="M336 96q153 0 191 237l5 33q7 44 7 78q0 77 -32.5 127t-107.5 50q-76 0 -126.5 -61t-69.5 -176l-5 -34q-8 -52 -8 -82q0 -172 146 -172zM330 -10q-131 0 -201 77t-71 204q0 47 7 86l5 34q25 157 114 245.5t220 88.5q128 0 197.5 -78t69.5 -207q0 -45 -7 -84l-5 -34 q-25 -156 -111 -244t-218 -88z"/>
<glyph glyph-name="one" horiz-adv-x="419" unicode="1" d="M141 0l92 582l-167 -104l19 120l184 117h119l-113 -715h-134z"/>
<glyph glyph-name="two" horiz-adv-x="578" unicode="2" d="M-35 0l4 24l323 283q64 56 100.5 107t36.5 109q0 42 -25 70t-71 28h-3q-53 0 -88.5 -32.5t-53.5 -109.5h-123q17 122 91.5 184t186.5 62q96 0 158 -51.5t62 -143.5q0 -79 -45 -141.5t-132 -135.5l-178 -150h297l-15 -103h-525z"/>
<glyph glyph-name="three" horiz-adv-x="623" unicode="3" d="M288 -10q-121 0 -191.5 60.5t-70.5 170.5h123q1 -59 34.5 -95t103.5 -36q67 0 104 33.5t37 98.5q0 48 -29 74.5t-89 26.5h-47l15 95h63q54 0 86.5 27.5t32.5 83.5q1 45 -26.5 70t-75.5 25q-56 0 -94 -30t-51 -88h-118q14 99 88 159t183 60q93 0 158 -46.5t65 -137.5 q0 -62 -36 -107.5t-101 -63.5q53 -16 82 -55t29 -95q0 -108 -78 -169t-197 -61z"/>
<glyph glyph-name="four" horiz-adv-x="641" unicode="4" d="M172 244h211l57 363zM343 0l22 145h-353l8 47l398 523h167l-75 -471h97l-17 -99h-96l-22 -145h-129z"/>
<glyph glyph-name="five" horiz-adv-x="604" unicode="5" d="M271 -10q-107 0 -175 54.5t-70 160.5h126q7 -112 120 -112q68 0 106.5 44.5t39.5 120.5q0 56 -31.5 88.5t-91.5 32.5q-86 0 -148 -62h-66l68 398h433l-17 -105h-331l-31 -190q60 56 150 56q91 0 146 -56t54 -152q0 -123 -77.5 -200.5t-204.5 -77.5z"/>
<glyph glyph-name="six" horiz-adv-x="641" unicode="6" d="M186 216q0 -55 32.5 -91.5t95.5 -36.5q64 0 104 47t40 117q0 53 -31.5 87.5t-92.5 34.5q-63 0 -105.5 -45.5t-42.5 -112.5zM313 -10q-124 0 -191 66t-67 190q0 44 8 98l5 29q11 71 36 132t64.5 111.5t99 79.5t132.5 29q99 0 158 -48.5t63 -140.5h-125q-8 86 -101 86 q-150 0 -195 -242q66 86 178 86q91 0 152 -56.5t61 -150.5q0 -118 -78.5 -193.5t-199.5 -75.5z"/>
<glyph glyph-name="seven" horiz-adv-x="545" unicode="7" d="M78 0l330 607h-328l17 108h500l-3 -16l-378 -699h-138z"/>
<glyph glyph-name="eight" horiz-adv-x="627" unicode="8" d="M241 519q0 -41 30.5 -68.5t79.5 -27.5t82.5 27.5t33.5 80.5q0 42 -29.5 70t-77.5 28q-50 0 -84.5 -28.5t-34.5 -81.5zM173 205q0 -52 36 -83.5t93 -31.5q63 0 101.5 35.5t38.5 98.5q0 51 -34.5 81.5t-88.5 30.5q-64 0 -105 -34.5t-41 -96.5zM296 -10q-106 0 -182 51.5 t-76 145.5q0 76 44 128t119 75q-40 19 -63 54t-23 78q0 92 73 147.5t178 55.5q90 0 159 -48.5t69 -134.5q0 -120 -130 -163q52 -21 81 -64t29 -96q0 -108 -78.5 -168.5t-199.5 -60.5z"/>
<glyph glyph-name="nine" horiz-adv-x="642" unicode="9" d="M209 463q0 -55 29.5 -88t83.5 -33q69 0 114 41t45 116q0 55 -31 91.5t-93 36.5q-65 0 -106.5 -46t-41.5 -118zM273 -9q-101 0 -166 48t-71 147h126q7 -50 36 -71t82 -21q146 0 187 237q-62 -82 -177 -82q-89 0 -151 54t-62 151q0 120 80 196t203 76q120 0 185.5 -67.5 t66.5 -191.5q0 -51 -8 -96l-5 -36q-56 -344 -326 -344z"/>
<glyph glyph-name="colon" horiz-adv-x="297" unicode=":" d="M163 285q-33 0 -56 23t-23 56t22.5 55.5t55.5 22.5q34 0 58 -22.5t24 -55.5t-23.5 -56t-57.5 -23zM116 -7q-33 0 -56 22.5t-23 55.5t22.5 56t55.5 23q34 0 57.5 -23t23.5 -56t-23 -55.5t-57 -22.5z"/>
<glyph glyph-name="semicolon" horiz-adv-x="303" unicode=";" d="M177 285q-33 0 -56 23t-23 56t22.5 55.5t55.5 22.5q34 0 57.5 -22.5t23.5 -55.5t-23 -56t-57 -23zM44 -123l-69 34l113 236l108 -46z"/>
<glyph glyph-name="less" horiz-adv-x="507" unicode="&lt;" d="M418 81l-363 233l4 26l435 223l-18 -115l-255 -125l214 -134z"/>
<glyph glyph-name="equal" horiz-adv-x="513" unicode="=" d="M56 371l14 92h433l-14 -92h-433zM27 185l14 91h433l-14 -91h-433z"/>
<glyph glyph-name="greater" horiz-adv-x="507" unicode="&gt;" d="M106 564l363 -233l-4 -26l-434 -224l17 117l256 125l-215 134z"/>
<glyph glyph-name="question" horiz-adv-x="515" unicode="?" d="M203 -7q-34 0 -56.5 22.5t-22.5 54.5q0 33 22.5 56t56.5 23q33 0 56.5 -23t23.5 -55q0 -33 -23.5 -55.5t-56.5 -22.5zM166 215l6 39q5 32 17.5 58.5t35.5 50t36 34.5t43 34q30 22 45 35.5t27.5 35.5t12.5 49q0 35 -22.5 54.5t-63.5 19.5q-45 0 -76.5 -29t-41.5 -84h-117 q13 101 77.5 156.5t161.5 55.5h3q98 0 152 -47.5t54 -119.5q0 -44 -18.5 -80t-40 -56t-60.5 -48q-6 -4 -24.5 -17.5t-26 -19.5t-22 -18.5t-21 -22.5t-13.5 -24.5t-9 -29.5l-4 -26h-111z"/>
<glyph glyph-name="at" horiz-adv-x="916" unicode="@" d="M437 141q45 0 79 43t34 109q0 43 -22 66t-60 23q-47 0 -78 -40t-31 -108q0 -44 21 -68.5t57 -24.5zM685 460l-41 -260q-2 -16 -2 -22q0 -52 47 -52t82.5 50t35.5 147q0 135 -88 217t-240 82q-154 0 -255.5 -101.5t-101.5 -263.5q0 -146 90 -243.5t253 -97.5q148 0 244 84 h82q-43 -69 -131 -110t-197 -41q-130 0 -227 57t-145.5 148.5t-48.5 202.5q0 185 129 308.5t308 123.5q178 0 290.5 -103t112.5 -262q0 -132 -62.5 -197.5t-142.5 -65.5q-109 0 -127 84q-46 -89 -144 -89q-72 0 -115 46t-43 127q0 104 58.5 171.5t145.5 67.5q90 0 115 -65 l9 57h109z"/>
<glyph glyph-name="A" horiz-adv-x="685" unicode="A" d="M393 606l-159 -332h212zM490 0l-29 177h-273l-84 -177h-128l352 715h174l123 -715h-135z"/>
<glyph glyph-name="B" horiz-adv-x="645" unicode="B" d="M235 414h111q136 0 136 118q0 46 -26 67t-83 21h-105zM184 95h136q70 0 106.5 35t36.5 93q0 51 -31 76t-99 25h-112zM40 0l113 715h237q217 0 217 -168q0 -138 -137 -176q122 -28 123 -154q0 -99 -71 -158t-190 -59h-292z"/>
<glyph glyph-name="C" horiz-adv-x="741" unicode="C" d="M389 -10q-153 0 -241.5 83.5t-88.5 229.5q0 182 107.5 302.5t279.5 120.5q124 0 201 -64.5t84 -185.5h-130q-11 72 -49 108.5t-110 36.5q-113 0 -178.5 -89.5t-65.5 -224.5q-1 -100 47.5 -155.5t144.5 -55.5q72 0 121.5 40.5t70.5 112.5h130q-25 -121 -113 -190t-210 -69 z"/>
<glyph glyph-name="D" horiz-adv-x="718" unicode="D" d="M190 105h89q132 0 205 79.5t73 221.5q0 96 -51.5 150.5t-160.5 54.5h-75zM40 0l113 715h196q173 0 259 -81.5t87 -223.5q0 -183 -111 -296.5t-303 -113.5h-241z"/>
<glyph glyph-name="E" horiz-adv-x="588" unicode="E" d="M40 0l113 715h444l-17 -105h-311l-31 -196h252l-15 -100h-252l-34 -209h332l-17 -105h-464z"/>
<glyph glyph-name="F" horiz-adv-x="566" unicode="F" d="M40 0l113 715h443l-17 -106h-310l-33 -213h243l-16 -103h-244l-46 -293h-133z"/>
<glyph glyph-name="G" horiz-adv-x="777" unicode="G" d="M397 -10q-157 0 -247 87.5t-90 233.5q0 174 109 293.5t275 119.5h2q123 0 205.5 -60.5t89.5 -178.5h-133q-6 67 -50 100.5t-117 33.5q-111 0 -177 -88.5t-66 -218.5q0 -102 51.5 -160t150.5 -58q87 0 137.5 48.5t64.5 131.5h-180l16 100h311q-28 -384 -352 -384z"/>
<glyph glyph-name="H" horiz-adv-x="751" unicode="H" d="M40 0l113 715h133l-48 -304h320l49 304h134l-113 -715h-134l48 304h-321l-48 -304h-133z"/>
<glyph glyph-name="I" horiz-adv-x="308" unicode="I" d="M44 0l113 715h134l-113 -715h-134z"/>
<glyph glyph-name="J" horiz-adv-x="443" unicode="J" d="M126 -9q-79 0 -130 28l16 102q52 -23 98 -23q99 0 116 111l80 506h134l-82 -514q-17 -106 -77.5 -158t-154.5 -52z"/>
<glyph glyph-name="K" horiz-adv-x="659" unicode="K" d="M40 0l113 715h133l-51 -320l325 320h148l-354 -344l249 -371h-146l-230 344l-54 -344h-133z"/>
<glyph glyph-name="L" horiz-adv-x="551" unicode="L" d="M40 0l113 715h133l-96 -609h305l-17 -106h-438z"/>
<glyph glyph-name="M" horiz-adv-x="889" unicode="M" d="M40 0l113 715h173l111 -487l261 487h181l-113 -715h-133l85 541l-298 -541h-43l-131 541l-86 -541h-120z"/>
<glyph glyph-name="N" horiz-adv-x="745" unicode="N" d="M40 0l113 715h159l218 -517l82 517h122l-113 -715h-138l-235 548l-86 -548h-122z"/>
<glyph glyph-name="O" d="M647 402q0 94 -51.5 155t-146.5 62q-114 0 -183 -90t-69 -218q0 -99 55 -157t147 -58q112 0 180 87.5t68 218.5zM785 405q0 -181 -111.5 -298t-280.5 -117q-147 0 -240.5 88t-93.5 230q0 178 112 297.5t281 119.5q151 0 242 -89.5t91 -230.5z" unicode="O"/>
<glyph glyph-name="P" horiz-adv-x="609" unicode="P" d="M231 368h98q76 0 115 37t39 107q0 101 -123 101h-90zM40 0l113 715h222q111 0 174 -50t63 -143q0 -125 -79 -187.5t-204 -62.5h-113l-43 -272h-133z"/>
<glyph glyph-name="Q" d="M399 93q34 0 64 9l-61 73l87 76l74 -88q84 89 84 238q0 94 -52 155.5t-146 61.5q-114 0 -183 -90t-69 -218q0 -98 55.5 -157.5t146.5 -59.5zM393 -11q-147 0 -240.5 88t-93.5 230q0 178 112 297t281 119q151 0 242 -89t91 -230q0 -103 -39 -188.5t-108 -141.5l75 -88 l-87 -76l-89 105q-67 -26 -144 -26z" unicode="Q"/>
<glyph glyph-name="R" horiz-adv-x="655" unicode="R" d="M233 384h110q149 0 149 131q1 49 -29 73t-89 24h-104zM40 0l113 715h235q110 0 173 -49.5t62 -140.5q0 -91 -52 -146t-137 -70l160 -309h-139l-149 289h-88l-45 -289h-133z"/>
<glyph glyph-name="S" horiz-adv-x="635" unicode="S" d="M306 -10q-135 0 -207.5 64.5t-72.5 167.5h128q3 -57 41 -94.5t116 -37.5h3q65 0 100 30.5t35 83.5q0 40 -28 63t-105 44q-117 30 -168 73.5t-51 126.5q0 91 70.5 152t187.5 61q115 0 180.5 -53t66.5 -154h-122q-9 107 -132 107q-61 0 -92 -27.5t-31 -73.5q0 -36 27.5 -57 t106.5 -42q117 -31 169 -76t52 -127q0 -103 -73.5 -167t-200.5 -64z"/>
<glyph glyph-name="T" horiz-adv-x="583" unicode="T" d="M182 0l96 610h-199l17 105h532l-18 -105h-198l-96 -610h-134z"/>
<glyph glyph-name="U" horiz-adv-x="723" unicode="U" d="M342 -10q-129 0 -198.5 59t-69.5 173q0 33 6 71l67 422h134l-68 -425q-5 -29 -5 -61q0 -69 34 -100.5t104 -31.5q73 0 112.5 41t54.5 134l71 443h134l-73 -457q-42 -268 -303 -268z"/>
<glyph glyph-name="V" horiz-adv-x="669" unicode="V" d="M214 0l-127 715h135l95 -580l278 580h129l-355 -715h-155z"/>
<glyph glyph-name="W" horiz-adv-x="928" unicode="W" d="M155 0l-68 715h135l41 -532l221 532h102l63 -535l209 535h124l-291 -715h-128l-60 512l-219 -512h-129z"/>
<glyph glyph-name="X" horiz-adv-x="653" unicode="X" d="M-22 0l286 374l-157 341h141l115 -257l188 257h138l-263 -352l168 -363h-144l-125 281l-208 -281h-139z"/>
<glyph glyph-name="Y" horiz-adv-x="626" unicode="Y" d="M209 0l49 310l-172 405h140l118 -295l202 295h135l-290 -414l-48 -301h-134z"/>
<glyph glyph-name="Z" horiz-adv-x="607" unicode="Z" d="M-20 0l2 18l456 594h-325l16 103h517l-2 -17l-450 -593h344l-16 -105h-542z"/>
<glyph glyph-name="bracketleft" horiz-adv-x="377" unicode="[" d="M13 -148l146 924h256l-14 -91h-135l-116 -742h134l-15 -91h-256z"/>
<glyph glyph-name="backslash" horiz-adv-x="415" unicode="\" d="M259 -148l-164 924h99l164 -924h-99z"/>
<glyph glyph-name="bracketright" horiz-adv-x="419" unicode="]" d="M-24 -148l15 91h134l117 742h-134l14 91h256l-146 -924h-256z"/>
<glyph glyph-name="asciicircum" horiz-adv-x="516" unicode="^" d="M57 402l213 313h113l119 -313h-108l-82 213l-143 -213h-112z"/>
<glyph glyph-name="underscore" horiz-adv-x="410" unicode="_" d="M-68 -159l12 74h411l-12 -74h-411z"/>
<glyph glyph-name="grave" horiz-adv-x="400" unicode="`" d="M218 601l-89 155h132l44 -155h-87z"/>
<glyph glyph-name="a" horiz-adv-x="554" unicode="a" d="M222 77q52 0 88 29t44 82l7 47h-76q-76 0 -110.5 -20t-34.5 -68q0 -31 21 -50.5t61 -19.5zM188 -10q-77 0 -122.5 39.5t-45.5 107.5q0 174 262 174h92l4 28q3 16 3 31q0 73 -86 73q-87 0 -106 -82h-116q18 89 80 131t147 42q200 0 200 -162q0 -23 -4 -46l-26 -167 q-11 -65 -11 -116q0 -29 2 -43h-115q-3 22 -3 46q0 21 1 30q-57 -86 -156 -86z"/>
<glyph glyph-name="b" horiz-adv-x="633" unicode="b" d="M319 84q71 0 112.5 59.5t41.5 153.5q0 68 -31 105.5t-86 37.5q-74 0 -122.5 -59t-48.5 -156q0 -66 35.5 -103.5t98.5 -37.5zM342 -10q-68 0 -113 29t-64 73l-14 -92h-122l122 765h120l-51 -326q27 43 74 69t104 26q89 0 145 -61.5t56 -166.5q0 -138 -71 -227t-186 -89z "/>
<glyph glyph-name="c" horiz-adv-x="564" unicode="c" d="M286 -9q-117 0 -185 64t-68 174q0 139 80.5 221.5t199.5 82.5q97 0 159 -49t66 -147h-114q-6 54 -35 77t-80 23q-70 0 -112 -56t-42 -152q0 -146 134 -146q49 0 84.5 29t45.5 82h110q-15 -96 -80 -149.5t-163 -53.5z"/>
<glyph glyph-name="d" horiz-adv-x="629" unicode="d" d="M280 84q74 0 120.5 57.5t46.5 159.5q0 64 -35 101.5t-93 37.5q-74 0 -117 -59t-43 -154q0 -67 32 -105t89 -38zM243 -10q-94 0 -152 61.5t-58 168.5q0 137 74 225.5t193 88.5q122 0 167 -97l52 328h121l-95 -606q-12 -79 -12 -127q0 -22 1 -32h-118q-1 10 -1 30 q0 31 3 59q-61 -99 -175 -99z"/>
<glyph glyph-name="e" horiz-adv-x="570" unicode="e" d="M312 446q-51 0 -90.5 -32t-56.5 -98h257q1 7 1 21q0 109 -111 109zM153 213q0 -133 126 -133q98 0 124 80h117q-22 -83 -87.5 -126.5t-157.5 -43.5q-111 0 -177 61.5t-66 167.5q0 138 80.5 226t202.5 88q103 0 164 -56t61 -160q0 -25 -5 -60l-4 -22h-378v-22z"/>
<glyph glyph-name="f" horiz-adv-x="354" unicode="f" d="M44 432l14 91h71l14 88q13 79 64 119.5t126 40.5q49 0 78 -13l-14 -92q-23 10 -52 10q-69 0 -82 -73l-13 -80h120l-15 -91h-119l-69 -432h-120l68 432h-71z"/>
<glyph glyph-name="g" horiz-adv-x="630" unicode="g" d="M601 523l-78 -495q-34 -220 -270 -220q-123 0 -182.5 49.5t-66.5 124.5h121q15 -82 125 -82q71 0 106.5 33.5t46.5 99.5l12 74q-59 -85 -167 -85q-93 0 -151.5 60t-58.5 162q0 123 74 206.5t186 83.5q122 0 169 -97l14 86h120zM281 114q71 0 118.5 54t47.5 142 q0 60 -35.5 95t-93.5 35q-71 0 -113 -55.5t-42 -133.5q0 -63 30.5 -100t87.5 -37z"/>
<glyph glyph-name="h" horiz-adv-x="604" unicode="h" d="M30 0l121 765h120l-52 -331q62 100 175 100q72 0 114 -39.5t42 -121.5q0 -22 -5 -59l-50 -314h-121l50 320q3 20 3 35q0 79 -80 79q-58 0 -98.5 -36t-50.5 -100l-47 -298h-121z"/>
<glyph glyph-name="i" horiz-adv-x="271" unicode="i" d="M33 0l83 523h121l-83 -523h-121zM198 609q-30 0 -50.5 20t-20.5 49t21 49.5t51 20.5t50.5 -20t20.5 -49t-21 -49.5t-51 -20.5z"/>
<glyph glyph-name="j" horiz-adv-x="271" unicode="j" d="M198 609q-30 0 -50.5 20t-20.5 49t21 49.5t51 20.5t50.5 -20t20.5 -49t-21 -49.5t-51 -20.5zM-68 -187l14 92q39 2 58.5 19.5t24.5 52.5l87 546h120l-88 -556q-11 -74 -58.5 -114t-144.5 -40h-13z"/>
<glyph glyph-name="k" horiz-adv-x="536" unicode="k" d="M30 0l120 765h121l-73 -466l220 224h139l-245 -241l173 -282h-134l-159 265l-41 -265h-121z"/>
<glyph glyph-name="l" horiz-adv-x="271" unicode="l" d="M33 0l121 765h121l-121 -765h-121z"/>
<glyph glyph-name="m" horiz-adv-x="909" unicode="m" d="M30 0l57 361q12 83 16 162h116q0 -51 -5 -94q28 48 72.5 76.5t96.5 28.5q117 0 140 -107q66 107 180 107q69 0 110.5 -38.5t41.5 -119.5q0 -23 -5 -58l-50 -318h-121l50 317q3 21 3 37q0 80 -76 80q-48 0 -85.5 -33t-47.5 -95l-48 -306h-120l50 321q3 18 3 33 q0 80 -77 80q-48 0 -85.5 -34t-46.5 -94l-48 -306h-121z"/>
<glyph glyph-name="n" horiz-adv-x="604" unicode="n" d="M30 0l57 361q12 83 16 162h116q0 -49 -6 -98q66 109 181 109q72 0 114 -39.5t42 -121.5q0 -22 -5 -59l-50 -314h-121l50 320q3 20 3 35q0 79 -80 79q-58 0 -98.5 -36t-50.5 -100l-47 -298h-121z"/>
<glyph glyph-name="o" horiz-adv-x="599" unicode="o" d="M282 84q75 0 118 60.5t43 155.5q0 64 -32.5 101.5t-94.5 37.5q-73 0 -117 -60.5t-44 -153.5q0 -65 31.5 -103t95.5 -38zM279 -10q-110 0 -178 64.5t-68 172.5q0 131 82 218.5t205 87.5q110 0 178.5 -63t68.5 -171q0 -135 -80.5 -222t-207.5 -87z"/>
<glyph glyph-name="p" horiz-adv-x="633" unicode="p" d="M319 84q71 0 112.5 59.5t41.5 153.5q0 68 -31 105.5t-86 37.5q-74 0 -122.5 -59t-48.5 -156q0 -66 35.5 -103.5t98.5 -37.5zM398 534q89 0 145 -61.5t56 -166.5q0 -138 -70.5 -227t-186.5 -89q-68 0 -113 29t-64 73l-43 -271h-121l86 540q12 83 16 162h116q0 -41 -5 -94 q29 49 77 77t107 28z"/>
<glyph glyph-name="q" horiz-adv-x="633" unicode="q" d="M280 84q74 0 120.5 57.5t46.5 159.5q0 64 -35 101.5t-93 37.5q-74 0 -117 -59t-43 -154q0 -67 32 -105t89 -38zM370 -179l41 256q-60 -87 -168 -87q-94 0 -152 61.5t-58 168.5q0 137 74 225.5t193 88.5q122 0 167 -97l14 86h121l-111 -702h-121z"/>
<glyph glyph-name="r" horiz-adv-x="396" unicode="r" d="M30 0l57 361q13 89 15 162h116q0 -47 -6 -109q34 59 78 87.5t114 29.5l-18 -113q-84 -1 -132.5 -38t-62.5 -124l-40 -256h-121z"/>
<glyph glyph-name="s" horiz-adv-x="493" unicode="s" d="M230 -11q-103 0 -159 47.5t-57 126.5h114q7 -84 106 -84q88 0 88 68q0 28 -21 43t-78 28q-88 20 -126 55.5t-38 97.5q0 78 58 120.5t145 42.5q88 0 141.5 -38.5t58.5 -119.5h-112q-2 32 -26 51t-65 19t-63.5 -16.5t-22.5 -46.5q0 -25 21 -39.5t76 -27.5q91 -21 131 -55 t40 -104q0 -78 -57.5 -123t-153.5 -45z"/>
<glyph glyph-name="t" horiz-adv-x="360" unicode="t" d="M212 -9q-71 0 -107.5 33.5t-36.5 95.5q0 18 3 39l43 273h-70l14 91h70l19 115h121l-19 -115h113l-14 -91h-113l-43 -272q-2 -16 -2 -22q0 -26 13.5 -37t41.5 -11q31 0 57 10l-15 -96q-31 -13 -75 -13z"/>
<glyph glyph-name="u" horiz-adv-x="601" unicode="u" d="M569 523l-57 -364q-13 -82 -13 -134q0 -4 0.5 -12.5t0.5 -12.5h-117q-1 9 -1 28q0 28 5 66q-67 -104 -176 -104q-73 0 -115.5 40t-42.5 120q0 24 5 59l50 314h121l-52 -324q-3 -16 -3 -31q0 -83 79 -83q57 0 97.5 36t50.5 100l47 302h121z"/>
<glyph glyph-name="v" horiz-adv-x="540" unicode="v" d="M157 0l-102 523h126l68 -402l195 402h123l-269 -523h-141z"/>
<glyph glyph-name="w" horiz-adv-x="792" unicode="w" d="M129 0l-71 523h125l39 -382l168 382h101l42 -382l162 382h121l-242 -523h-123l-39 356l-159 -356h-124z"/>
<glyph glyph-name="x" horiz-adv-x="529" unicode="x" d="M-32 0l222 274l-128 249h134l83 -167l132 167h131l-207 -253l141 -270h-135l-91 188l-151 -188h-131z"/>
<glyph glyph-name="y" horiz-adv-x="533" unicode="y" d="M45 -179l135 238l-125 464h124l81 -338l176 338h124l-391 -702h-124z"/>
<glyph glyph-name="z" horiz-adv-x="487" unicode="z" d="M-25 0l2 14l332 414h-241l14 95h423l-3 -17l-329 -409h260l-16 -97h-442z"/>
<glyph glyph-name="braceleft" horiz-adv-x="396" unicode="{" d="M288 -147q-99 4 -151 41t-52 106q0 38 16 83l31 86q7 20 7 39q0 66 -100 70l13 86h7q62 0 90 24t28 72v6l-2 97v8q0 112 60.5 159.5t190.5 47.5h9l-15 -89q-74 -2 -101.5 -29.5t-27.5 -100.5v-99q0 -119 -119 -145q82 -22 82 -98q0 -27 -10 -57l-28 -84q-13 -38 -13 -64 q0 -35 24 -51t75 -19z"/>
<glyph glyph-name="bar" horiz-adv-x="259" unicode="|" d="M99 -148v924h90v-924h-90z"/>
<glyph glyph-name="braceright" horiz-adv-x="396" unicode="}" d="M122 778q202 -8 202 -147q0 -37 -15 -83l-30 -87q-7 -20 -7 -39q0 -66 99 -74l-12 -86q-3 0 -10 0.5t-11 0.5q-57 0 -81 -23.5t-23 -73.5l2 -98v-6q0 -114 -60.5 -161.5t-190.5 -47.5h-9l14 89q75 2 102.5 29.5t26.5 100.5v104q0 118 120 138q-84 25 -84 101q0 21 10 51 l29 89q13 38 13 65q0 34 -23.5 50t-75.5 19z"/>
<glyph glyph-name="asciitilde" horiz-adv-x="474" unicode="~" d="M33 220q13 78 49.5 116.5t83.5 38.5q38 0 85.5 -24t60.5 -24q18 0 32.5 13t18.5 37h86q-11 -76 -48.5 -116t-83.5 -40q-40 0 -88 24.5t-60 24.5q-39 0 -50 -50h-86z"/>
<glyph glyph-name="uni00A0" horiz-adv-x="271" unicode=" "/>
<glyph glyph-name="exclamdown" horiz-adv-x="306" unicode="¡" d="M191 605q34 0 56.5 -22.5t22.5 -54.5q0 -33 -22.5 -56t-56.5 -23q-33 0 -56.5 23t-23.5 55q0 33 23.5 55.5t56.5 22.5zM220 383l-61 -500h-135l99 500h97z"/>
<glyph glyph-name="cent" horiz-adv-x="575" unicode="¢" d="M152 226q0 -113 87 -139l56 352q-64 -9 -103.5 -64.5t-39.5 -148.5zM204 -135l20 131q-89 17 -140.5 77.5t-51.5 152.5q0 135 79.5 218.5t198.5 88.5l15 96h67l-16 -100q76 -12 122.5 -60.5t51.5 -131.5h-112q-6 80 -77 98l-56 -355q105 7 127 113h108 q-14 -98 -82.5 -150t-166.5 -53l-20 -125h-67z"/>
<glyph glyph-name="sterling" horiz-adv-x="620" unicode="£" d="M50 304l13 85h62q-4 52 -4 82q0 112 69 182.5t190 70.5q105 0 165.5 -51.5t60.5 -157.5h-126q-2 51 -26 78.5t-77 27.5q-127 0 -127 -161q0 -48 1 -71h201l-14 -85h-183q1 -14 1 -45q0 -70 -29 -121q18 -5 51 -16.5t55 -17.5t39 -6q71 0 83 75h117q-12 -84 -60.5 -133 t-133.5 -49q-50 0 -124 29.5t-97 29.5q-50 0 -60 -50h-103q7 50 38 91t80 54q25 44 25 106q0 25 -3 53h-84z"/>
<glyph glyph-name="yen" horiz-adv-x="604" unicode="¥" d="M79 286l9 63h149l-145 366h141l101 -288l188 288h131l-251 -366h150l-10 -63h-166l-10 -67h164l-9 -64h-165l-25 -155h-132l24 155h-166l10 64h166l11 67h-165z"/>
<glyph glyph-name="brokenbar" horiz-adv-x="259" unicode="¦" d="M99 369v407h90v-407h-90zM99 -148v447h90v-447h-90z"/>
<glyph glyph-name="section" horiz-adv-x="565" unicode="§" d="M334 196q82 17 82 76q0 28 -23 48t-72 39l-82 31q-32 -4 -56.5 -23.5t-24.5 -53.5q0 -27 21.5 -46t71.5 -38zM234 -137q-85 0 -142 42t-57 124v5h116q2 -81 90 -81q37 0 62 20.5t25 56.5q0 28 -25.5 48t-92.5 44q-87 30 -130.5 68.5t-43.5 103.5q0 59 37 96t98 52 q-38 40 -38 99q0 85 61 134t152 49q84 0 135.5 -41t53.5 -126h-117q-1 76 -80 77q-39 0 -63.5 -19t-24.5 -58q0 -29 23.5 -48.5t85.5 -41.5q88 -29 133 -69t45 -108q0 -106 -132 -144q41 -39 41 -100q0 -87 -60.5 -135t-151.5 -48z"/>
<glyph glyph-name="dieresis" horiz-adv-x="400" unicode="¨" d="M363 613q-27 0 -46 18.5t-19 45.5t19.5 46.5t46.5 19.5q28 0 46.5 -19t18.5 -46q0 -26 -19.5 -45.5t-46.5 -19.5zM166 613q-28 0 -47 18.5t-19 45.5t19.5 46.5t47.5 19.5q27 0 46 -19t19 -46q0 -26 -19.5 -45.5t-46.5 -19.5z"/>
<glyph glyph-name="copyright" horiz-adv-x="843" unicode="©" d="M432 -13q-155 0 -263.5 106.5t-108.5 263.5q0 155 108.5 263t265.5 108q158 0 265.5 -107t107.5 -262q0 -158 -108.5 -265t-266.5 -107zM432 32q133 0 227 92.5t94 234.5q0 141 -92.5 232.5t-226.5 91.5q-135 0 -228 -92t-93 -234t94 -233.5t225 -91.5zM437 153 q-96 0 -148 54t-52 146v8q0 90 56 145.5t142 55.5q75 0 122.5 -37t54.5 -109h-97q-9 70 -80 70q-46 0 -72.5 -32.5t-26.5 -92.5v-7q0 -60 26 -92t74 -32q78 0 88 74h92q-7 -73 -55 -112t-124 -39z"/>
<glyph glyph-name="ordfeminine" horiz-adv-x="444" unicode="ª" d="M219 367q86 0 99 78l6 36h-57q-55 0 -80.5 -15.5t-25.5 -49.5q0 -22 15 -35.5t43 -13.5zM183 289q-59 0 -94.5 31.5t-35.5 83.5q0 141 218 141h62l4 21q2 16 2 22q0 55 -63 55t-77 -59h-105q13 71 65 105.5t124 34.5q163 0 163 -131q0 -12 -4 -42l-19 -125q-8 -47 -8 -88 q0 -14 2 -40h-105q-3 20 -3 35q0 3 0.5 9.5t0.5 9.5q-46 -63 -127 -63z"/>
<glyph glyph-name="guillemotleft" horiz-adv-x="492" unicode="«" d="M325 78l-99 185l153 181h98l-151 -185l92 -181h-93zM147 78l-100 185l153 181h98l-151 -184l93 -182h-93z"/>
<glyph glyph-name="registered" horiz-adv-x="515" unicode="®" d="M292 281q-94 0 -159.5 64t-65.5 157q0 92 65.5 157.5t159.5 65.5q95 0 160 -64.5t65 -157.5q0 -94 -65 -158t-160 -64zM292 319q79 0 131.5 51.5t52.5 132.5t-51.5 132.5t-132.5 51.5q-80 0 -131.5 -52t-51.5 -133t52.5 -132t130.5 -51zM269 515h23q34 0 34 28v1 q0 28 -34 28h-23v-57zM213 396v219h82q86 0 86 -68v-1q0 -44 -41 -59l54 -91h-58l-48 81h-19v-81h-56z"/>
<glyph glyph-name="macron" horiz-adv-x="400" unicode="¯" d="M118 634l12 78h280l-12 -78h-280z"/>
<glyph glyph-name="degree" horiz-adv-x="437" unicode="°" d="M261 396q-69 0 -118 46.5t-49 112.5q0 71 50 120t123 49q69 0 117 -47t48 -114q0 -69 -49.5 -118t-121.5 -49zM262 459q40 0 65.5 28.5t25.5 74.5q0 42 -24.5 70.5t-63.5 28.5q-41 0 -67.5 -29t-26.5 -75q0 -42 26 -70t65 -28z"/>
<glyph glyph-name="plusminus" horiz-adv-x="539" unicode="±" d="M-5 0l13 89h467l-13 -89h-467zM201 157l28 175h-182l14 94h183l28 176h101l-28 -176h182l-14 -94h-183l-28 -175h-101z"/>
<glyph glyph-name="twosuperior" horiz-adv-x="313" unicode="²" d="M21 360l2 14l149 131q40 35 58.5 58.5t18.5 47.5q0 19 -11 29t-28 10q-45 0 -59 -61h-86q10 63 50.5 97t100.5 34q54 0 89.5 -25.5t35.5 -77.5q0 -37 -22.5 -66.5t-77.5 -75.5l-54 -47h126l-10 -68h-282z"/>
<glyph glyph-name="threesuperior" horiz-adv-x="336" unicode="³" d="M195 354q-64 0 -103 29t-40 91h85q2 -54 56 -54q23 0 39.5 13t16.5 38q0 41 -51 41h-25l8 58h30q54 0 54 44q0 39 -43 39q-48 0 -59 -48h-82q7 53 47 84t100 31q54 0 89.5 -23t35.5 -72q0 -63 -70 -84q59 -13 59 -76q0 -52 -42.5 -81.5t-104.5 -29.5z"/>
<glyph glyph-name="acute" horiz-adv-x="400" unicode="´" d="M200 601l77 155h136l-122 -155h-91z"/>
<glyph glyph-name="paragraph" horiz-adv-x="573" unicode="¶" d="M210 -100l69 439h-3q-90 0 -144.5 43t-54.5 123q0 100 67.5 155t172.5 55h243l-129 -815h-72l120 755h-79l-119 -755h-71z"/>
<glyph glyph-name="periodcentered" horiz-adv-x="289" unicode="·" d="M153 248q-33 0 -56 23t-23 56t22.5 55.5t55.5 22.5q34 0 57.5 -22.5t23.5 -55.5t-23 -56t-57 -23z"/>
<glyph glyph-name="cedilla" horiz-adv-x="400" unicode="¸" d="M141 -219q-45 0 -75 22.5t-34 65.5h67q4 -33 39 -33q38 0 38 36q0 30 -34 30q-15 0 -27 -8l-30 33l57 73h61l-39 -50h9q33 0 56 -20t23 -55q0 -45 -30.5 -69.5t-80.5 -24.5z"/>
<glyph glyph-name="onesuperior" horiz-adv-x="253" unicode="¹" d="M119 360l41 263l-89 -51l12 80l104 63h82l-57 -355h-93z"/>
<glyph glyph-name="ordmasculine" horiz-adv-x="504" unicode="º" d="M275 373q55 0 87 46t32 117q0 103 -93 103q-54 0 -86.5 -46t-32.5 -118q0 -48 23.5 -75t69.5 -27zM268 289q-91 0 -144 51t-53 135q0 107 69 178t168 71q92 0 144.5 -51.5t52.5 -136.5q0 -108 -68 -177.5t-169 -69.5z"/>
<glyph glyph-name="guillemotright" horiz-adv-x="492" unicode="»" d="M165 444l99 -185l-152 -181h-99l151 185l-92 181h93zM343 444l101 -185l-153 -181h-98l151 184l-94 182h93z"/>
<glyph glyph-name="onequarter" horiz-adv-x="730" unicode="¼" d="M464 133h89l23 153zM529 0l11 69h-178l6 34l194 252h113l-35 -222h47l-11 -64h-46l-11 -69h-90zM32 0l603 715h79l-602 -715h-80zM122 360l41 263l-89 -51l12 80l104 63h82l-57 -355h-93z"/>
<glyph glyph-name="onehalf" horiz-adv-x="743" unicode="½" d="M391 0l3 14l148 132q40 34 58.5 57t18.5 48q0 19 -11 29t-28 10q-45 0 -59 -61h-85q10 62 50.5 96.5t99.5 34.5q54 0 89.5 -25.5t35.5 -77.5q0 -37 -22 -65.5t-78 -76.5l-54 -47h127l-11 -68h-282zM122 360l41 263l-89 -51l12 80l104 63h82l-57 -355h-93zM19 0l603 715 h79l-602 -715h-80z"/>
<glyph glyph-name="threequarters" horiz-adv-x="762" unicode="¾" d="M496 133h89l23 153zM561 0l11 69h-178l6 34l194 252h113l-35 -222h47l-11 -64h-46l-11 -69h-90zM78 0l603 715h79l-602 -715h-80zM198 354q-64 0 -103 29t-40 91h85q2 -54 56 -54q23 0 39.5 13t16.5 38q0 41 -51 41h-25l8 58h30q54 0 54 44q0 39 -43 39q-48 0 -59 -48 h-82q7 53 47 84t100 31q54 0 89.5 -23t35.5 -72q0 -63 -70 -84q59 -13 59 -76q0 -52 -42.5 -81.5t-104.5 -29.5z"/>
<glyph glyph-name="questiondown" horiz-adv-x="515" unicode="¿" d="M320 605q34 0 56.5 -22.5t22.5 -54.5q0 -33 -22.5 -56t-56.5 -23q-33 0 -56.5 23t-23.5 55q0 33 23.5 55.5t56.5 22.5zM357 383l-6 -39q-5 -32 -17.5 -58.5t-35.5 -50t-36 -34.5t-43 -34q-30 -22 -45 -35.5t-27.5 -35.5t-12.5 -49q0 -35 22.5 -54.5t63.5 -19.5 q45 0 76.5 29t41.5 84h117q-13 -101 -77.5 -156.5t-161.5 -55.5h-3q-98 0 -152 47.5t-54 119.5q0 44 18.5 80t40 56t60.5 48q6 4 24.5 17.5t26 19.5t22 18.5t21 22.5t13.5 24.5t9 29.5l4 26h111z"/>
<glyph glyph-name="Agrave" horiz-adv-x="685" unicode="À" d="M382 766l-83 135h134l37 -135h-88zM393 606l-159 -332h212zM490 0l-29 177h-273l-84 -177h-128l352 715h174l123 -715h-135z"/>
<glyph glyph-name="Aacute" horiz-adv-x="685" unicode="Á" d="M365 766l67 135h138l-111 -135h-94zM393 606l-159 -332h212zM490 0l-29 177h-273l-84 -177h-128l352 715h174l123 -715h-135z"/>
<glyph glyph-name="Acircumflex" horiz-adv-x="685" unicode="Â" d="M250 766l126 135h105l92 -135h-85l-67 55l-82 -55h-89zM393 606l-159 -332h212zM490 0l-29 177h-273l-84 -177h-128l352 715h174l123 -715h-135z"/>
<glyph glyph-name="Atilde" horiz-adv-x="685" unicode="Ã" d="M483 768q-28 0 -65 19.5t-49 19.5q-14 0 -26 -11t-16 -29h-77q12 63 43.5 97t74.5 34q27 0 64.5 -20t50.5 -20q30 0 41 40h76q-12 -62 -43.5 -96t-73.5 -34zM393 606l-159 -332h212zM490 0l-29 177h-273l-84 -177h-128l352 715h174l123 -715h-135z"/>
<glyph glyph-name="Adieresis" horiz-adv-x="685" unicode="Ä" d="M317 777q-27 0 -46.5 18.5t-19.5 45.5t20 46.5t47 19.5t46 -19t19 -46q0 -26 -19.5 -45.5t-46.5 -19.5zM528 777q-27 0 -46.5 18.5t-19.5 45.5t19.5 46.5t47.5 19.5q27 0 46 -19t19 -46q0 -26 -19.5 -45.5t-46.5 -19.5zM393 606l-159 -332h212zM490 0l-29 177h-273 l-84 -177h-128l352 715h174l123 -715h-135z"/>
<glyph glyph-name="Aring" horiz-adv-x="685" unicode="Å" d="M421 807q22 0 36.5 15.5t14.5 40.5q0 24 -13.5 39t-35.5 15t-36.5 -16t-14.5 -41q0 -24 13.5 -38.5t35.5 -14.5zM393 606l-159 -332h212zM421 753q-46 0 -78.5 31.5t-32.5 75.5q0 46 33.5 78.5t79.5 32.5t78.5 -31.5t32.5 -76.5t-33.5 -77.5t-79.5 -32.5zM490 0l-29 177 h-273l-84 -177h-128l352 715h174l123 -715h-135z"/>
<glyph glyph-name="AE" horiz-adv-x="971" unicode="Æ" d="M491 610l-206 -332h188l52 332h-34zM-20 0l450 715h554l-17 -105h-309l-31 -196h250l-16 -100h-249l-34 -209h329l-16 -105h-462l29 183h-231l-113 -183h-134z"/>
<glyph glyph-name="Ccedilla" horiz-adv-x="741" unicode="Ç" d="M306 -219q-45 0 -75 22.5t-34 65.5h67q4 -33 39 -33q38 0 38 36q0 30 -34 30q-15 0 -27 -8l-30 33l55 71q-116 21 -181 100.5t-65 204.5q0 182 107.5 302.5t279.5 120.5q124 0 201 -64.5t84 -185.5h-130q-11 72 -49 108.5t-110 36.5q-113 0 -178.5 -89.5t-65.5 -224.5 q-1 -100 47.5 -155.5t144.5 -55.5q72 0 121.5 40.5t70.5 112.5h130q-25 -121 -113 -190t-210 -69q-14 0 -28 1l-32 -41h9q33 0 56 -20t23 -55q0 -45 -30.5 -69.5t-80.5 -24.5z"/>
<glyph glyph-name="Egrave" horiz-adv-x="588" unicode="È" d="M40 0l113 715h444l-17 -105h-311l-31 -196h252l-15 -100h-252l-34 -209h332l-17 -105h-464zM350 766l-83 135h134l37 -135h-88z"/>
<glyph glyph-name="Eacute" horiz-adv-x="588" unicode="É" d="M40 0l113 715h444l-17 -105h-311l-31 -196h252l-15 -100h-252l-34 -209h332l-17 -105h-464zM322 766l67 135h138l-111 -135h-94z"/>
<glyph glyph-name="Ecircumflex" horiz-adv-x="588" unicode="Ê" d="M40 0l113 715h444l-17 -105h-311l-31 -196h252l-15 -100h-252l-34 -209h332l-17 -105h-464zM213 766l126 135h105l92 -135h-85l-67 55l-82 -55h-89z"/>
<glyph glyph-name="Edieresis" horiz-adv-x="588" unicode="Ë" d="M492 777q-27 0 -46.5 18.5t-19.5 45.5t19.5 46.5t47.5 19.5q27 0 46 -19t19 -46q0 -26 -19.5 -45.5t-46.5 -19.5zM281 777q-27 0 -46.5 18.5t-19.5 45.5t20 46.5t47 19.5t46 -19t19 -46q0 -26 -19.5 -45.5t-46.5 -19.5zM40 0l113 715h444l-17 -105h-311l-31 -196h252 l-15 -100h-252l-34 -209h332l-17 -105h-464z"/>
<glyph glyph-name="Igrave" horiz-adv-x="308" unicode="Ì" d="M195 766l-83 135h134l37 -135h-88zM44 0l113 715h134l-113 -715h-134z"/>
<glyph glyph-name="Iacute" horiz-adv-x="308" unicode="Í" d="M176 766l67 135h138l-111 -135h-94zM44 0l113 715h134l-113 -715h-134z"/>
<glyph glyph-name="Icircumflex" horiz-adv-x="308" unicode="Î" d="M67 766l126 135h105l92 -135h-85l-67 55l-82 -55h-89zM44 0l113 715h134l-113 -715h-134z"/>
<glyph glyph-name="Idieresis" horiz-adv-x="308" unicode="Ï" d="M349 777q-27 0 -46.5 18.5t-19.5 45.5t19.5 46.5t47.5 19.5q27 0 46 -19t19 -46q0 -26 -19.5 -45.5t-46.5 -19.5zM138 777q-27 0 -46.5 18.5t-19.5 45.5t20 46.5t47 19.5t46 -19t19 -46q0 -26 -19.5 -45.5t-46.5 -19.5zM44 0l113 715h134l-113 -715h-134z"/>
<glyph glyph-name="Eth" horiz-adv-x="737" unicode="Ð" d="M208 105h91q132 0 205 79.5t73 221.5q0 96 -51.5 150.5t-160.5 54.5h-77l-33 -205h173l-15 -95h-173zM39 311l15 95h69l49 309h197q173 0 259 -82t86 -223q0 -184 -110.5 -297t-303.5 -113h-241l49 311h-69z"/>
<glyph glyph-name="Ntilde" horiz-adv-x="745" unicode="Ñ" d="M40 0l113 715h159l218 -517l82 517h122l-113 -715h-138l-235 548l-86 -548h-122zM526 768q-28 0 -65 19.5t-49 19.5q-14 0 -26 -11t-16 -29h-77q12 63 43.5 97t74.5 34q27 0 64.5 -20t50.5 -20q30 0 41 40h76q-12 -62 -43.5 -96t-73.5 -34z"/>
<glyph glyph-name="Ograve" d="M647 402q0 94 -51.5 155t-146.5 62q-114 0 -183 -90t-69 -218q0 -99 55 -157t147 -58q112 0 180 87.5t68 218.5zM785 405q0 -181 -111.5 -298t-280.5 -117q-147 0 -240.5 88t-93.5 230q0 178 112 297.5t281 119.5q151 0 242 -89.5t91 -230.5zM431 766l-83 135h134 l37 -135h-88z" unicode="Ò"/>
<glyph glyph-name="Oacute" d="M647 402q0 94 -51.5 155t-146.5 62q-114 0 -183 -90t-69 -218q0 -99 55 -157t147 -58q112 0 180 87.5t68 218.5zM785 405q0 -181 -111.5 -298t-280.5 -117q-147 0 -240.5 88t-93.5 230q0 178 112 297.5t281 119.5q151 0 242 -89.5t91 -230.5zM414 766l67 135h138 l-111 -135h-94z" unicode="Ó"/>
<glyph glyph-name="Ocircumflex" d="M647 402q0 94 -51.5 155t-146.5 62q-114 0 -183 -90t-69 -218q0 -99 55 -157t147 -58q112 0 180 87.5t68 218.5zM785 405q0 -181 -111.5 -298t-280.5 -117q-147 0 -240.5 88t-93.5 230q0 178 112 297.5t281 119.5q151 0 242 -89.5t91 -230.5zM309 766l126 135h105 l92 -135h-85l-67 55l-82 -55h-89z" unicode="Ô"/>
<glyph glyph-name="Otilde" d="M647 402q0 94 -51.5 155t-146.5 62q-114 0 -183 -90t-69 -218q0 -99 55 -157t147 -58q112 0 180 87.5t68 218.5zM785 405q0 -181 -111.5 -298t-280.5 -117q-147 0 -240.5 88t-93.5 230q0 178 112 297.5t281 119.5q151 0 242 -89.5t91 -230.5zM533 768q-28 0 -65 19.5 t-49 19.5q-14 0 -26 -11t-16 -29h-77q12 63 43.5 97t74.5 34q27 0 64.5 -20t50.5 -20q30 0 41 40h76q-12 -62 -43.5 -96t-73.5 -34z" unicode="Õ"/>
<glyph glyph-name="Odieresis" d="M647 402q0 94 -51.5 155t-146.5 62q-114 0 -183 -90t-69 -218q0 -99 55 -157t147 -58q112 0 180 87.5t68 218.5zM785 405q0 -181 -111.5 -298t-280.5 -117q-147 0 -240.5 88t-93.5 230q0 178 112 297.5t281 119.5q151 0 242 -89.5t91 -230.5zM584 777q-27 0 -46.5 18.5 t-19.5 45.5t19.5 46.5t47.5 19.5q27 0 46 -19t19 -46q0 -26 -19.5 -45.5t-46.5 -19.5zM373 777q-27 0 -46.5 18.5t-19.5 45.5t20 46.5t47 19.5t46 -19t19 -46q0 -26 -19.5 -45.5t-46.5 -19.5z" unicode="Ö"/>
<glyph glyph-name="multiply" horiz-adv-x="509" unicode="×" d="M84 115l-59 68l173 153l-132 153l72 66l133 -154l173 153l60 -68l-174 -154l133 -153l-73 -65l-133 153z"/>
<glyph glyph-name="Oslash" d="M195 311q0 -61 20 -106l365 371q-53 43 -131 43q-115 0 -184.5 -89.5t-69.5 -218.5zM649 402q0 68 -26 120l-367 -376q53 -50 143 -50q112 0 181 87t69 219zM80 -33l-48 51l91 93q-64 81 -64 197q0 178 112 297t281 119q123 0 210 -63l79 80l48 -50l-76 -78 q72 -85 72 -208q0 -181 -111.5 -298t-280.5 -117q-129 0 -221 71z" unicode="Ø"/>
<glyph glyph-name="Ugrave" horiz-adv-x="723" unicode="Ù" d="M342 -10q-129 0 -198.5 59t-69.5 173q0 33 6 71l67 422h134l-68 -425q-5 -29 -5 -61q0 -69 34 -100.5t104 -31.5q73 0 112.5 41t54.5 134l71 443h134l-73 -457q-42 -268 -303 -268zM395 766l-83 135h134l37 -135h-88z"/>
<glyph glyph-name="Uacute" horiz-adv-x="723" unicode="Ú" d="M342 -10q-129 0 -198.5 59t-69.5 173q0 33 6 71l67 422h134l-68 -425q-5 -29 -5 -61q0 -69 34 -100.5t104 -31.5q73 0 112.5 41t54.5 134l71 443h134l-73 -457q-42 -268 -303 -268zM382 766l67 135h138l-111 -135h-94z"/>
<glyph glyph-name="Ucircumflex" horiz-adv-x="723" unicode="Û" d="M342 -10q-129 0 -198.5 59t-69.5 173q0 33 6 71l67 422h134l-68 -425q-5 -29 -5 -61q0 -69 34 -100.5t104 -31.5q73 0 112.5 41t54.5 134l71 443h134l-73 -457q-42 -268 -303 -268zM268 766l126 135h105l92 -135h-85l-67 55l-82 -55h-89z"/>
<glyph glyph-name="Udieresis" horiz-adv-x="723" unicode="Ü" d="M549 777q-27 0 -46.5 18.5t-19.5 45.5t19.5 46.5t47.5 19.5q27 0 46 -19t19 -46q0 -26 -19.5 -45.5t-46.5 -19.5zM338 777q-27 0 -46.5 18.5t-19.5 45.5t20 46.5t47 19.5t46 -19t19 -46q0 -26 -19.5 -45.5t-46.5 -19.5zM342 -10q-129 0 -198.5 59t-69.5 173q0 33 6 71 l67 422h134l-68 -425q-5 -29 -5 -61q0 -69 34 -100.5t104 -31.5q73 0 112.5 41t54.5 134l71 443h134l-73 -457q-42 -268 -303 -268z"/>
<glyph glyph-name="Yacute" horiz-adv-x="626" unicode="Ý" d="M337 766l67 135h138l-111 -135h-94zM209 0l49 310l-172 405h140l118 -295l202 295h135l-290 -414l-48 -301h-134z"/>
<glyph glyph-name="Thorn" horiz-adv-x="609" unicode="Þ" d="M342 488h-92l-38 -238h102q73 0 112 36.5t39 104.5q1 49 -29.5 73t-93.5 24zM286 715l-20 -128h91q111 0 174.5 -49t62.5 -141q0 -120 -79 -182t-201 -62h-117l-24 -153h-133l113 715h133z"/>
<glyph glyph-name="germandbls" horiz-adv-x="609" unicode="ß" d="M329 -9q-64 0 -111 22l16 92q36 -19 81 -19q63 0 96.5 42.5t33.5 111.5q0 68 -39.5 105.5t-109.5 37.5h-3l15 95q64 0 104.5 28.5t40.5 89.5q0 43 -26 66.5t-71 23.5q-48 0 -77.5 -30.5t-37.5 -86.5l-90 -569h-121l90 570q15 98 80 150.5t160 52.5q89 0 148 -46t59 -129 q0 -61 -38 -105t-104 -63q66 -21 104.5 -73t38.5 -125q0 -110 -64 -175.5t-175 -65.5z"/>
<glyph glyph-name="agrave" horiz-adv-x="554" unicode="à" d="M272 601l-89 155h132l44 -155h-87zM222 77q52 0 88 29t44 82l7 47h-76q-76 0 -110.5 -20t-34.5 -68q0 -31 21 -50.5t61 -19.5zM188 -10q-77 0 -122.5 39.5t-45.5 107.5q0 174 262 174h92l4 28q3 16 3 31q0 73 -86 73q-87 0 -106 -82h-116q18 89 80 131t147 42 q200 0 200 -162q0 -23 -4 -46l-26 -167q-11 -65 -11 -116q0 -29 2 -43h-115q-3 22 -3 46q0 21 1 30q-57 -86 -156 -86z"/>
<glyph glyph-name="aacute" horiz-adv-x="554" unicode="á" d="M265 601l77 155h136l-122 -155h-91zM222 77q52 0 88 29t44 82l7 47h-76q-76 0 -110.5 -20t-34.5 -68q0 -31 21 -50.5t61 -19.5zM188 -10q-77 0 -122.5 39.5t-45.5 107.5q0 174 262 174h92l4 28q3 16 3 31q0 73 -86 73q-87 0 -106 -82h-116q18 89 80 131t147 42 q200 0 200 -162q0 -23 -4 -46l-26 -167q-11 -65 -11 -116q0 -29 2 -43h-115q-3 22 -3 46q0 21 1 30q-57 -86 -156 -86z"/>
<glyph glyph-name="acircumflex" horiz-adv-x="554" unicode="â" d="M149 602l135 151h95l91 -151h-83l-66 68l-85 -68h-87zM222 77q52 0 88 29t44 82l7 47h-76q-76 0 -110.5 -20t-34.5 -68q0 -31 21 -50.5t61 -19.5zM188 -10q-77 0 -122.5 39.5t-45.5 107.5q0 174 262 174h92l4 28q3 16 3 31q0 73 -86 73q-87 0 -106 -82h-116q18 89 80 131 t147 42q200 0 200 -162q0 -23 -4 -46l-26 -167q-11 -65 -11 -116q0 -29 2 -43h-115q-3 22 -3 46q0 21 1 30q-57 -86 -156 -86z"/>
<glyph glyph-name="atilde" horiz-adv-x="554" unicode="ã" d="M382 606q-28 0 -64.5 20t-48.5 20q-14 0 -26 -11t-16 -29h-74q11 63 41.5 97t73.5 34q27 0 64 -19.5t50 -19.5q30 0 40 40h75q-11 -63 -42 -97.5t-73 -34.5zM222 77q52 0 88 29t44 82l7 47h-76q-76 0 -110.5 -20t-34.5 -68q0 -31 21 -50.5t61 -19.5zM188 -10 q-77 0 -122.5 39.5t-45.5 107.5q0 174 262 174h92l4 28q3 16 3 31q0 73 -86 73q-87 0 -106 -82h-116q18 89 80 131t147 42q200 0 200 -162q0 -23 -4 -46l-26 -167q-11 -65 -11 -116q0 -29 2 -43h-115q-3 22 -3 46q0 21 1 30q-57 -86 -156 -86z"/>
<glyph glyph-name="adieresis" horiz-adv-x="554" unicode="ä" d="M420 613q-27 0 -46 18.5t-19 45.5t19.5 46.5t46.5 19.5q28 0 46.5 -19t18.5 -46q0 -26 -19 -45.5t-47 -19.5zM223 613q-28 0 -47 18.5t-19 45.5t19.5 46.5t47.5 19.5q27 0 46 -19t19 -46q0 -26 -19.5 -45.5t-46.5 -19.5zM222 77q52 0 88 29t44 82l7 47h-76 q-76 0 -110.5 -20t-34.5 -68q0 -31 21 -50.5t61 -19.5zM188 -10q-77 0 -122.5 39.5t-45.5 107.5q0 174 262 174h92l4 28q3 16 3 31q0 73 -86 73q-87 0 -106 -82h-116q18 89 80 131t147 42q200 0 200 -162q0 -23 -4 -46l-26 -167q-11 -65 -11 -116q0 -29 2 -43h-115 q-3 22 -3 46q0 21 1 30q-57 -86 -156 -86z"/>
<glyph glyph-name="aring" horiz-adv-x="554" unicode="å" d="M326 590q-46 0 -78 31t-32 76t33 77t80 32q46 0 78 -31t32 -75q0 -45 -33.5 -77.5t-79.5 -32.5zM326 643q22 0 36.5 16t14.5 41q0 23 -13 38t-35 15q-23 0 -37.5 -15.5t-14.5 -40.5q0 -24 13.5 -39t35.5 -15zM222 77q52 0 88 29t44 82l7 47h-76q-76 0 -110.5 -20 t-34.5 -68q0 -31 21 -50.5t61 -19.5zM188 -10q-77 0 -122.5 39.5t-45.5 107.5q0 174 262 174h92l4 28q3 16 3 31q0 73 -86 73q-87 0 -106 -82h-116q18 89 80 131t147 42q200 0 200 -162q0 -23 -4 -46l-26 -167q-11 -65 -11 -116q0 -29 2 -43h-115q-3 22 -3 46q0 21 1 30 q-57 -86 -156 -86z"/>
<glyph glyph-name="ae" horiz-adv-x="887" unicode="æ" d="M635 446q-50 0 -89 -32.5t-55 -99.5h249q1 8 1 22q0 110 -106 110zM221 77q53 0 89 28.5t45 83.5l7 47h-77q-75 0 -110 -21t-35 -70q0 -31 20.5 -49.5t60.5 -18.5zM480 213q0 -133 122 -133q94 0 120 80h115q-21 -83 -84 -126.5t-155 -43.5q-150 0 -203 110 q-61 -110 -197 -110q-83 0 -130.5 38.5t-47.5 106.5q0 94 72 136.5t194 42.5h89l4 26q3 16 3 30q0 73 -87 73q-90 0 -107 -82h-117q17 89 81 131t148 42q125 0 163 -74q75 73 177 73t160 -55t58 -158q0 -26 -5 -63l-4 -20h-369v-24z"/>
<glyph glyph-name="ccedilla" horiz-adv-x="564" unicode="ç" d="M215 -219q-45 0 -75 22.5t-34 65.5h67q4 -33 39 -33q38 0 38 36q0 30 -34 30q-15 0 -27 -8l-30 33l55 71q-85 18 -133 79t-48 152q0 139 80.5 221.5t199.5 82.5q97 0 159 -49t66 -147h-114q-6 54 -35 77t-80 23q-70 0 -112 -56t-42 -152q0 -146 134 -146q49 0 84.5 29 t45.5 82h110q-15 -96 -80 -149.5t-163 -53.5h-16l-32 -41h9q33 0 56 -20t23 -55q0 -45 -30.5 -69.5t-80.5 -24.5z"/>
<glyph glyph-name="egrave" horiz-adv-x="570" unicode="è" d="M286 601l-89 155h132l44 -155h-87zM312 446q-51 0 -90.5 -32t-56.5 -98h257q1 7 1 21q0 109 -111 109zM153 213q0 -133 126 -133q98 0 124 80h117q-22 -83 -87.5 -126.5t-157.5 -43.5q-111 0 -177 61.5t-66 167.5q0 138 80.5 226t202.5 88q103 0 164 -56t61 -160 q0 -25 -5 -60l-4 -22h-378v-22z"/>
<glyph glyph-name="eacute" horiz-adv-x="570" unicode="é" d="M275 601l77 155h136l-122 -155h-91zM312 446q-51 0 -90.5 -32t-56.5 -98h257q1 7 1 21q0 109 -111 109zM153 213q0 -133 126 -133q98 0 124 80h117q-22 -83 -87.5 -126.5t-157.5 -43.5q-111 0 -177 61.5t-66 167.5q0 138 80.5 226t202.5 88q103 0 164 -56t61 -160 q0 -25 -5 -60l-4 -22h-378v-22z"/>
<glyph glyph-name="ecircumflex" horiz-adv-x="570" unicode="ê" d="M160 602l135 151h95l91 -151h-83l-66 68l-85 -68h-87zM312 446q-51 0 -90.5 -32t-56.5 -98h257q1 7 1 21q0 109 -111 109zM153 213q0 -133 126 -133q98 0 124 80h117q-22 -83 -87.5 -126.5t-157.5 -43.5q-111 0 -177 61.5t-66 167.5q0 138 80.5 226t202.5 88 q103 0 164 -56t61 -160q0 -25 -5 -60l-4 -22h-378v-22z"/>
<glyph glyph-name="edieresis" horiz-adv-x="570" unicode="ë" d="M436 613q-27 0 -46 18.5t-19 45.5t19.5 46.5t46.5 19.5q28 0 46.5 -19t18.5 -46q0 -26 -19 -45.5t-47 -19.5zM239 613q-28 0 -47 18.5t-19 45.5t19.5 46.5t47.5 19.5q27 0 46 -19t19 -46q0 -26 -19.5 -45.5t-46.5 -19.5zM312 446q-51 0 -90.5 -32t-56.5 -98h257q1 7 1 21 q0 109 -111 109zM153 213q0 -133 126 -133q98 0 124 80h117q-22 -83 -87.5 -126.5t-157.5 -43.5q-111 0 -177 61.5t-66 167.5q0 138 80.5 226t202.5 88q103 0 164 -56t61 -160q0 -25 -5 -60l-4 -22h-378v-22z"/>
<glyph glyph-name="igrave" horiz-adv-x="271" unicode="ì" d="M148 601l-89 155h132l44 -155h-87zM33 0l83 523h121l-83 -523h-121z"/>
<glyph glyph-name="iacute" horiz-adv-x="271" unicode="í" d="M33 0l83 523h121l-83 -523h-121zM135 601l77 155h136l-122 -155h-91z"/>
<glyph glyph-name="icircumflex" horiz-adv-x="271" unicode="î" d="M33 0l83 523h121l-83 -523h-121zM22 602l135 151h95l91 -151h-83l-66 68l-85 -68h-87z"/>
<glyph glyph-name="idieresis" horiz-adv-x="271" unicode="ï" d="M33 0l83 523h121l-83 -523h-121zM296 613q-27 0 -46 18.5t-19 45.5t19 46.5t47 19.5q27 0 46 -19t19 -46q0 -26 -19 -45.5t-47 -19.5zM106 613q-27 0 -46.5 18.5t-19.5 45.5t19.5 46.5t47.5 19.5q27 0 46 -19t19 -46q0 -26 -19.5 -45.5t-46.5 -19.5z"/>
<glyph glyph-name="eth" horiz-adv-x="603" unicode="ð" d="M155 222q0 -60 30.5 -99t93.5 -39q77 0 121 63.5t44 152.5q0 60 -31 99.5t-96 39.5q-76 0 -119 -62.5t-43 -154.5zM204 567l-24 52l113 51q-45 44 -115 95h148q34 -20 67 -50l101 45l24 -53l-81 -36q131 -149 131 -337q0 -151 -76.5 -247.5t-214.5 -96.5q-109 0 -177 64 t-68 174q0 122 73.5 212.5t189.5 90.5q90 0 137 -68q-34 88 -97 162z"/>
<glyph glyph-name="ntilde" horiz-adv-x="604" unicode="ñ" d="M413 606q-28 0 -64.5 20t-48.5 20q-14 0 -26 -11t-16 -29h-74q11 63 41.5 97t73.5 34q27 0 64 -19.5t50 -19.5q30 0 40 40h75q-11 -63 -42 -97.5t-73 -34.5zM30 0l57 361q12 83 16 162h116q0 -49 -6 -98q66 109 181 109q72 0 114 -39.5t42 -121.5q0 -22 -5 -59l-50 -314 h-121l50 320q3 20 3 35q0 79 -80 79q-58 0 -98.5 -36t-50.5 -100l-47 -298h-121z"/>
<glyph glyph-name="ograve" horiz-adv-x="599" unicode="ò" d="M295 601l-89 155h132l44 -155h-87zM282 84q75 0 118 60.5t43 155.5q0 64 -32.5 101.5t-94.5 37.5q-73 0 -117 -60.5t-44 -153.5q0 -65 31.5 -103t95.5 -38zM279 -10q-110 0 -178 64.5t-68 172.5q0 131 82 218.5t205 87.5q110 0 178.5 -63t68.5 -171q0 -135 -80.5 -222 t-207.5 -87z"/>
<glyph glyph-name="oacute" horiz-adv-x="599" unicode="ó" d="M282 84q75 0 118 60.5t43 155.5q0 64 -32.5 101.5t-94.5 37.5q-73 0 -117 -60.5t-44 -153.5q0 -65 31.5 -103t95.5 -38zM279 -10q-110 0 -178 64.5t-68 172.5q0 131 82 218.5t205 87.5q110 0 178.5 -63t68.5 -171q0 -135 -80.5 -222t-207.5 -87zM282 601l77 155h136 l-122 -155h-91z"/>
<glyph glyph-name="ocircumflex" horiz-adv-x="599" unicode="ô" d="M282 84q75 0 118 60.5t43 155.5q0 64 -32.5 101.5t-94.5 37.5q-73 0 -117 -60.5t-44 -153.5q0 -65 31.5 -103t95.5 -38zM279 -10q-110 0 -178 64.5t-68 172.5q0 131 82 218.5t205 87.5q110 0 178.5 -63t68.5 -171q0 -135 -80.5 -222t-207.5 -87zM170 602l135 151h95 l91 -151h-83l-66 68l-85 -68h-87z"/>
<glyph glyph-name="otilde" horiz-adv-x="599" unicode="õ" d="M400 606q-28 0 -64.5 20t-48.5 20q-14 0 -26 -11t-16 -29h-74q11 63 41.5 97t73.5 34q27 0 64 -19.5t50 -19.5q30 0 40 40h75q-11 -63 -42 -97.5t-73 -34.5zM282 84q75 0 118 60.5t43 155.5q0 64 -32.5 101.5t-94.5 37.5q-73 0 -117 -60.5t-44 -153.5q0 -65 31.5 -103 t95.5 -38zM279 -10q-110 0 -178 64.5t-68 172.5q0 131 82 218.5t205 87.5q110 0 178.5 -63t68.5 -171q0 -135 -80.5 -222t-207.5 -87z"/>
<glyph glyph-name="odieresis" horiz-adv-x="599" unicode="ö" d="M282 84q75 0 118 60.5t43 155.5q0 64 -32.5 101.5t-94.5 37.5q-73 0 -117 -60.5t-44 -153.5q0 -65 31.5 -103t95.5 -38zM279 -10q-110 0 -178 64.5t-68 172.5q0 131 82 218.5t205 87.5q110 0 178.5 -63t68.5 -171q0 -135 -80.5 -222t-207.5 -87zM442 613q-27 0 -46 18.5 t-19 45.5t19.5 46.5t46.5 19.5q28 0 46.5 -19t18.5 -46q0 -26 -19 -45.5t-47 -19.5zM245 613q-28 0 -47 18.5t-19 45.5t19.5 46.5t47.5 19.5q27 0 46 -19t19 -46q0 -26 -19.5 -45.5t-46.5 -19.5z"/>
<glyph glyph-name="divide" horiz-adv-x="540" unicode="÷" d="M305 461q-32 0 -54 22t-22 53q0 32 22.5 54t53.5 22q32 0 54.5 -22t22.5 -54q0 -31 -22.5 -53t-54.5 -22zM257 71q-32 0 -54 22t-22 53t22 53t54 22t54.5 -22t22.5 -53t-22.5 -53t-54.5 -22zM41 296l14 91h467l-14 -91h-467z"/>
<glyph glyph-name="oslash" horiz-adv-x="599" unicode="ø" d="M153 226q0 -36 9 -64l239 252q-31 26 -85 26q-74 0 -118.5 -60t-44.5 -154zM282 83q76 0 119.5 60.5t43.5 155.5q0 36 -9 63l-241 -253q31 -26 87 -26zM55 -38l-44 42l70 73q-49 62 -49 149q0 132 82 219.5t206 87.5q89 0 153 -44l66 70l44 -42l-66 -69q50 -59 50 -150 q0 -135 -81 -221.5t-208 -86.5q-89 0 -153 45z"/>
<glyph glyph-name="ugrave" horiz-adv-x="601" unicode="ù" d="M307 601l-89 155h132l44 -155h-87zM569 523l-57 -364q-13 -82 -13 -134q0 -4 0.5 -12.5t0.5 -12.5h-117q-1 9 -1 28q0 28 5 66q-67 -104 -176 -104q-73 0 -115.5 40t-42.5 120q0 24 5 59l50 314h121l-52 -324q-3 -16 -3 -31q0 -83 79 -83q57 0 97.5 36t50.5 100l47 302 h121z"/>
<glyph glyph-name="uacute" horiz-adv-x="601" unicode="ú" d="M569 523l-57 -364q-13 -82 -13 -134q0 -4 0.5 -12.5t0.5 -12.5h-117q-1 9 -1 28q0 28 5 66q-67 -104 -176 -104q-73 0 -115.5 40t-42.5 120q0 24 5 59l50 314h121l-52 -324q-3 -16 -3 -31q0 -83 79 -83q57 0 97.5 36t50.5 100l47 302h121zM294 601l77 155h136l-122 -155 h-91z"/>
<glyph glyph-name="ucircumflex" horiz-adv-x="601" unicode="û" d="M569 523l-57 -364q-13 -82 -13 -134q0 -4 0.5 -12.5t0.5 -12.5h-117q-1 9 -1 28q0 28 5 66q-67 -104 -176 -104q-73 0 -115.5 40t-42.5 120q0 24 5 59l50 314h121l-52 -324q-3 -16 -3 -31q0 -83 79 -83q57 0 97.5 36t50.5 100l47 302h121zM182 602l135 151h95l91 -151 h-83l-66 68l-85 -68h-87z"/>
<glyph glyph-name="udieresis" horiz-adv-x="601" unicode="ü" d="M569 523l-57 -364q-13 -82 -13 -134q0 -4 0.5 -12.5t0.5 -12.5h-117q-1 9 -1 28q0 28 5 66q-67 -104 -176 -104q-73 0 -115.5 40t-42.5 120q0 24 5 59l50 314h121l-52 -324q-3 -16 -3 -31q0 -83 79 -83q57 0 97.5 36t50.5 100l47 302h121zM451 613q-27 0 -46 18.5 t-19 45.5t19.5 46.5t46.5 19.5q28 0 46.5 -19t18.5 -46q0 -26 -19.5 -45.5t-46.5 -19.5zM254 613q-28 0 -47 18.5t-19 45.5t19.5 46.5t47.5 19.5q27 0 46 -19t19 -46q0 -26 -19.5 -45.5t-46.5 -19.5z"/>
<glyph glyph-name="yacute" horiz-adv-x="533" unicode="ý" d="M266 601l77 155h136l-122 -155h-91zM45 -179l135 238l-125 464h124l81 -338l176 338h124l-391 -702h-124z"/>
<glyph glyph-name="thorn" horiz-adv-x="636" unicode="þ" d="M319 84q71 0 112.5 59.5t41.5 153.5q0 68 -31 105.5t-86 37.5q-74 0 -122.5 -59t-48.5 -156q0 -66 35.5 -103.5t98.5 -37.5zM1 -179l149 944h121l-52 -330q27 44 75 71.5t105 27.5q88 0 144 -61.5t56 -167.5q0 -137 -70.5 -226t-186.5 -89q-69 0 -114 29.5t-62 74.5 l-44 -273h-121z"/>
<glyph glyph-name="OE" horiz-adv-x="969" unicode="Œ" d="M537 610h-61q-132 0 -206 -80t-74 -222q0 -96 53 -150t163 -54h46zM890 0h-485q-172 0 -259 81.5t-87 222.5q0 183 111.5 297t303.5 114h509l-18 -105h-295l-31 -196h236l-15 -100h-236l-34 -209h316z"/>
<glyph glyph-name="oe" horiz-adv-x="976" unicode="œ" d="M718 446q-50 0 -89.5 -32t-57.5 -98h257q1 7 1 21q0 109 -111 109zM282 84q75 0 118 60.5t43 155.5q0 64 -32.5 101.5t-94.5 37.5q-73 0 -117 -60.5t-44 -154.5q0 -64 31.5 -102t95.5 -38zM559 213q0 -133 126 -133q98 0 124 80h117q-22 -83 -87.5 -126.5t-157.5 -43.5 q-140 0 -196 100q-76 -100 -207 -100q-108 0 -176.5 64.5t-69.5 171.5q0 132 82 219.5t206 87.5q137 0 197 -104q77 104 204 104q104 0 164.5 -55.5t60.5 -158.5q0 -35 -5 -62l-3 -22h-379v-22z"/>
<glyph glyph-name="Scaron" horiz-adv-x="635" unicode="Š" d="M306 -10q-135 0 -207.5 64.5t-72.5 167.5h128q3 -57 41 -94.5t116 -37.5h3q65 0 100 30.5t35 83.5q0 40 -28 63t-105 44q-117 30 -168 73.5t-51 126.5q0 91 70.5 152t187.5 61q115 0 180.5 -53t66.5 -154h-122q-9 107 -132 107q-61 0 -92 -27.5t-31 -73.5q0 -36 27.5 -57 t106.5 -42q117 -31 169 -76t52 -127q0 -103 -73.5 -167t-200.5 -64zM541 901l-127 -135h-105l-91 135h84l67 -55l82 55h90z"/>
<glyph glyph-name="scaron" horiz-adv-x="493" unicode="š" d="M230 -11q-103 0 -159 47.5t-57 126.5h114q7 -84 106 -84q88 0 88 68q0 28 -21 43t-78 28q-88 20 -126 55.5t-38 97.5q0 78 58 120.5t145 42.5q88 0 141.5 -38.5t58.5 -119.5h-112q-2 32 -26 51t-65 19t-63.5 -16.5t-22.5 -46.5q0 -25 21 -39.5t76 -27.5q91 -21 131 -55 t40 -104q0 -78 -57.5 -123t-153.5 -45zM460 753l-135 -151h-96l-90 151h82l66 -67l85 67h88z"/>
<glyph glyph-name="Ydieresis" horiz-adv-x="626" unicode="Ÿ" d="M504 777q-27 0 -46.5 18.5t-19.5 45.5t19.5 46.5t47.5 19.5q27 0 46 -19t19 -46q0 -26 -19.5 -45.5t-46.5 -19.5zM293 777q-27 0 -46.5 18.5t-19.5 45.5t20 46.5t47 19.5t46 -19t19 -46q0 -26 -19.5 -45.5t-46.5 -19.5zM209 0l49 310l-172 405h140l118 -295l202 295h135 l-290 -414l-48 -301h-134z"/>
<glyph glyph-name="circumflex" horiz-adv-x="400" unicode="ˆ" d="M93 602l135 151h95l91 -151h-83l-66 68l-85 -68h-87z"/>
<glyph glyph-name="tilde" horiz-adv-x="400" unicode="˜" d="M320 606q-28 0 -64.5 20t-48.5 20q-14 0 -26 -11t-16 -29h-74q11 63 41.5 97t73.5 34q27 0 64 -19.5t50 -19.5q30 0 40 40h75q-11 -63 -42 -97.5t-73 -34.5z"/>
<glyph glyph-name="uni2009" horiz-adv-x="94" unicode=" "/>
<glyph glyph-name="endash" horiz-adv-x="532" unicode="–" d="M41 240l13 84h442l-14 -84h-441z"/>
<glyph glyph-name="emdash" horiz-adv-x="909" unicode="—" d="M41 240l13 84h819l-13 -84h-819z"/>
<glyph glyph-name="quoteleft" horiz-adv-x="263" unicode="‘" d="M180 464l-107 43l141 220l69 -31z"/>
<glyph glyph-name="quotesinglbase" horiz-adv-x="263" unicode="‚" d="M46 -111l-67 31l102 232l106 -43z"/>
<glyph glyph-name="quotedblleft" horiz-adv-x="460" unicode="“" d="M377 464l-107 43l141 220l68 -31zM180 464l-107 43l141 220l69 -31z"/>
<glyph glyph-name="quotedblright" horiz-adv-x="460" unicode="”" d="M347 464l-68 31l102 232l107 -43zM151 464l-69 31l102 232l108 -43z"/>
<glyph glyph-name="dagger" horiz-adv-x="386" unicode="†" d="M133 213l46 288h-112l14 90h112l20 124h103l-20 -124h111l-14 -90h-111l-46 -288h-103z"/>
<glyph glyph-name="daggerdbl" horiz-adv-x="386" unicode="‡" d="M166 416l15 96h-112l13 85h112l19 118h103l-19 -118h111l-13 -85h-112l-15 -96h112l-13 -85h-112l-19 -118h-103l19 118h-112l13 85h113z"/>
<glyph glyph-name="ellipsis" horiz-adv-x="840" unicode="…" d="M664 -7q-33 0 -56 22.5t-23 55.5t22.5 56t55.5 23q34 0 57.5 -23t23.5 -56t-23 -55.5t-57 -22.5zM388 -7q-33 0 -56 22.5t-23 55.5t22.5 56t55.5 23q34 0 58 -23t24 -56t-23.5 -55.5t-57.5 -22.5zM113 -7q-34 0 -56.5 22.5t-22.5 55.5t22.5 56t55.5 23q34 0 57.5 -23 t23.5 -56t-23 -55.5t-57 -22.5z"/>
<glyph glyph-name="perthousand" horiz-adv-x="1156" unicode="‰" d="M939 -10q-70 0 -116 43t-46 111q0 76 52.5 130.5t129.5 54.5q70 0 115.5 -44t45.5 -112q0 -75 -52.5 -129t-128.5 -54zM874 143q0 -31 16.5 -52t51.5 -21q37 1 59 30.5t22 73.5q0 32 -16.5 54t-50.5 22q-39 0 -60.5 -30.5t-21.5 -76.5zM558 -10q-70 0 -116 43t-46 111 q0 76 52.5 130.5t129.5 54.5q70 0 115 -44t45 -112q0 -75 -52 -129t-128 -54zM493 143q0 -31 16.5 -52t51.5 -21q36 1 58 31t22 73q0 32 -16.5 54t-49.5 22q-39 0 -60.5 -30.5t-21.5 -76.5zM85 0l558 715h87l-559 -715h-86zM231 384q-70 0 -116 42.5t-46 110.5 q0 76 52.5 130.5t129.5 54.5q70 0 115 -44t45 -112q0 -75 -52 -128.5t-128 -53.5zM166 537q0 -31 16.5 -52.5t51.5 -21.5q37 1 58.5 30.5t21.5 73.5q0 32 -16 54t-50 22q-39 0 -60.5 -30t-21.5 -76z"/>
<glyph glyph-name="uni2032" horiz-adv-x="227" unicode="′" d="M68 458l65 257h124l-102 -257h-87z"/>
<glyph glyph-name="uni2033" horiz-adv-x="409" unicode="″" d="M251 458l64 257h124l-101 -257h-87zM68 458l65 257h124l-102 -257h-87z"/>
<glyph glyph-name="guilsinglleft" horiz-adv-x="316" unicode="‹" d="M146 78l-99 186l155 180h101l-153 -183l91 -183h-95z"/>
<glyph glyph-name="guilsinglright" horiz-adv-x="316" unicode="›" d="M167 444l100 -186l-156 -180h-101l154 183l-92 183h95z"/>
<glyph glyph-name="fraction" horiz-adv-x="135" unicode="⁄" d="M-261 0l603 715h79l-602 -715h-80z"/>
<glyph glyph-name="Euro" horiz-adv-x="688" unicode="€" d="M48 389l10 63h68q28 125 106.5 199t199.5 74q113 0 177.5 -60.5t65.5 -174.5h-125q-2 58 -31.5 95t-91.5 37q-131 0 -170 -170h200l-19 -63h-193l-11 -68h183l-20 -63h-170v-9q0 -154 138 -154q125 0 161 145h123q-24 -124 -100.5 -187t-189.5 -63q-127 0 -194 72.5 t-67 190.5v5h-70l10 63h66v1l10 67h-66z"/>
<glyph glyph-name="trademark" horiz-adv-x="733" unicode="™" d="M137 393l41 262h-92l10 60h259l-9 -60h-92l-41 -262h-76zM354 393l51 322h95l46 -199l108 199h102l-51 -322h-77l35 224l-126 -224h-24l-56 224l-35 -224h-68z"/>
<glyph glyph-name="minus" horiz-adv-x="540" unicode="−" d="M40 293l16 96h467l-16 -96h-467z"/>
<glyph glyph-name="approxequal" horiz-adv-x="530" unicode="≈" d="M27 148q11 71 47 106.5t86 35.5q40 0 107.5 -21t90.5 -21q41 0 50 45h79q-10 -69 -46.5 -105.5t-83.5 -36.5q-42 0 -110 21.5t-90 21.5q-39 0 -51 -46h-79zM59 342q11 71 47 107t85 36q40 0 108 -21.5t91 -21.5q18 0 31.5 12t17.5 33h79q-9 -69 -45.5 -105.5t-84.5 -36.5 q-41 0 -109.5 21.5t-90.5 21.5q-39 0 -50 -46h-79z"/>
<glyph glyph-name="notequal" horiz-adv-x="513" unicode="≠" d="M56 371l14 92h221l51 100h91l-51 -100h121l-14 -92h-153l-48 -95h186l-14 -91h-217l-51 -101h-91l51 101h-125l14 91h156l48 95h-189z"/>
<glyph glyph-name="lessequal" horiz-adv-x="507" unicode="≤" d="M7 0l13 89h399l-14 -89h-398zM425 128l-365 217l4 26l432 209l-18 -115l-240 -111l204 -117z"/>
<glyph glyph-name="greaterequal" horiz-adv-x="507" unicode="≥" d="M109 580l365 -217l-4 -25l-432 -210l17 115l241 112l-204 116zM18 0l14 89h399l-14 -89h-399z"/>
</font>
</defs>
</svg>
